<svg xmlns="http://www.w3.org/2000/svg" id="Layer_1" data-name="Layer 1" width="160" viewBox="0 0 160 54.73" class="inline-svg replaced-svg"><defs><style>.cls-1 { fill: #1d1d1b; }</style></defs><path class="cls-1" d="M79.3 0v8.8a6.81 6.81 0 0 1 2.36-2 6.7 6.7 0 0 1 3-.66 7.28 7.28 0 0 1 5.79 2.33q2 2.33 2 6.65v11.52h-4.64V16.3a7.11 7.11 0 0 0-1-4.24 4.26 4.26 0 0 0-6.49.27q-1 1.65-1 5.69v8.62h-4.59V0h4.57zM121.38 6.51V8.8a6.81 6.81 0 0 1 2.36-2 6.7 6.7 0 0 1 3-.66 8.23 8.23 0 0 1 3.78.82 7 7 0 0 1 2.7 2.47 7.53 7.53 0 0 1 1 2.52 20.06 20.06 0 0 1 .38 4.05v10.64h-4.72v-8.91q0-4.08-.94-5.56a3.53 3.53 0 0 0-3.23-1.48 3.64 3.64 0 0 0-3.35 1.65q-1 1.65-1 5.69v8.62h-4.56V6.51h4.57zM136 31.19a8.53 8.53 0 0 0 1.36 1.18 10.43 10.43 0 0 0 6.11 1.72 10 10 0 0 0 7.66-3c1.87-2 2.85-3.92 2.81-8.21V6.51h-4.61v8.73q0 4.08-1 5.74a3.65 3.65 0 0 1-3.37 1.66 3.52 3.52 0 0 1-3.21-1.46q-.94-1.46-.94-5.36V6.51h-4.68v11.66q0 4.34 2 6.67a7.27 7.27 0 0 0 5.8 2.33 6.64 6.64 0 0 0 3-.67 7 7 0 0 0 2.37-2.09 5.65 5.65 0 0 1-1.28 3.82 5.81 5.81 0 0 1-4.44 1.92 6.53 6.53 0 0 1-3.18-.75 6.92 6.92 0 0 1-1.53-1.14zM33.23 5.91a10.55 10.55 0 0 0-6 1.88V6.51h-4.6v26.64h4.57v-7.92a10.6 10.6 0 1 0 6.03-19.32zm0 16.64a6 6 0 0 1-6-5.86v-.35a6 6 0 1 1 6 6.21zM45.58 6.48h4.57V26.6h-4.57zM62.62 5.91a10.55 10.55 0 0 0-6 1.88V6.51H52v26.64h4.57v-7.92a10.6 10.6 0 1 0 6.05-19.32zm0 16.64a6 6 0 0 1-6-5.86v-.35a6 6 0 1 1 6 6.21zM115.28 16.51v-10h-4.58v1.28a10.6 10.6 0 1 0 0 17.44v1.4h4.57v-10s.01-.09.01-.12zm-10.6 6a6 6 0 1 1 6-6.21v.35a6 6 0 0 1-6.01 5.9zM16.43 18.06h4.66a10.59 10.59 0 1 0-.56 2.17h-5.18a6 6 0 0 1-10.58-2.17h11.66zm-5.83-7.58a6 6 0 0 1 5.63 3.87H5a6 6 0 0 1 5.6-3.87z"></path><circle class="cls-1" cx="157.7" cy="24.3" r="2.3"></circle><path class="cls-1" d="M24.54 52.31h-.69v-.5a2.38 2.38 0 0 1-.73.47 2.43 2.43 0 0 1-.93.17 2.3 2.3 0 0 1-.93-.19 2.33 2.33 0 0 1-.75-.52A2.5 2.5 0 0 1 20 51a2.39 2.39 0 0 1-.18-1 2.36 2.36 0 0 1 .18-.93 2.52 2.52 0 0 1 .51-.77 2.33 2.33 0 0 1 .75-.52 2.3 2.3 0 0 1 .93-.19 2.43 2.43 0 0 1 .93.17 2.38 2.38 0 0 1 .73.47v-.51h.69v4.6zm-2.26-.47a1.88 1.88 0 0 0 .88-.21 1.91 1.91 0 0 0 .69-.63v-2a1.9 1.9 0 0 0-.69-.63 1.88 1.88 0 0 0-.88-.21 1.74 1.74 0 0 0-.71.14 1.76 1.76 0 0 0-.57.39 1.8 1.8 0 0 0-.37.58 1.91 1.91 0 0 0 0 1.41 1.88 1.88 0 0 0 .37.58 1.73 1.73 0 0 0 1.28.58zM110.72 52.31H110v-.5a2.38 2.38 0 0 1-.73.47 2.43 2.43 0 0 1-.93.17 2.3 2.3 0 0 1-.93-.19 2.33 2.33 0 0 1-.75-.52 2.5 2.5 0 0 1-.51-.77A2.39 2.39 0 0 1 106 50a2.35 2.35 0 0 1 .19-.94 2.52 2.52 0 0 1 .51-.77 2.33 2.33 0 0 1 .75-.52 2.3 2.3 0 0 1 .93-.19 2.43 2.43 0 0 1 .93.17 2.37 2.37 0 0 1 .73.47v-.5h.69v4.6zm-2.26-.47a1.89 1.89 0 0 0 .88-.21A1.91 1.91 0 0 0 110 51v-2a1.91 1.91 0 0 0-.69-.63 1.89 1.89 0 0 0-.88-.21 1.75 1.75 0 0 0-1.27.54 1.8 1.8 0 0 0-.37.58 1.87 1.87 0 0 0 .37 2 1.71 1.71 0 0 0 .57.4 1.73 1.73 0 0 0 .73.16zM116.84 52.46a2.54 2.54 0 0 1-.16.93 2 2 0 0 1-.47.72 2.06 2.06 0 0 1-.73.46 2.62 2.62 0 0 1-.93.16 2.73 2.73 0 0 1-.84-.12 2.25 2.25 0 0 1-.69-.35 2 2 0 0 1-.49-.54 1.84 1.84 0 0 1-.25-.69h.72a1.24 1.24 0 0 0 .52.79 1.75 1.75 0 0 0 1 .3 1.59 1.59 0 0 0 1.17-.44 1.62 1.62 0 0 0 .44-1.2v-.82a2.26 2.26 0 0 1-.77.49 2.63 2.63 0 0 1-1 .17 2.23 2.23 0 0 1-.92-.19 2.39 2.39 0 0 1-.74-.51 2.33 2.33 0 0 1-.49-.75 2.35 2.35 0 0 1-.18-.91 2.51 2.51 0 0 1 .18-.95 2.27 2.27 0 0 1 1.23-1.26 2.28 2.28 0 0 1 .92-.18 2.63 2.63 0 0 1 1 .17 2.26 2.26 0 0 1 .77.49v-.5h.68v4.74zm-2.32-.75a2.06 2.06 0 0 0 .92-.21 1.85 1.85 0 0 0 .73-.66V49a1.85 1.85 0 0 0-.73-.66 2.05 2.05 0 0 0-.92-.21 1.69 1.69 0 0 0-.69.14 1.66 1.66 0 0 0-.54.38 1.78 1.78 0 0 0-.36.57 1.91 1.91 0 0 0-.13.71 1.75 1.75 0 0 0 .13.67 1.8 1.8 0 0 0 .36.56 1.72 1.72 0 0 0 .54.39 1.63 1.63 0 0 0 .69.17zM123 50v.15a1 1 0 0 1 0 .14h-4a2 2 0 0 0 .17.62 1.63 1.63 0 0 0 .35.5 1.67 1.67 0 0 0 .52.33 1.74 1.74 0 0 0 .68.12 1.71 1.71 0 0 0 .83-.19 1.16 1.16 0 0 0 .51-.52h.74a1.73 1.73 0 0 1-.76.95 2.47 2.47 0 0 1-1.33.35 2.41 2.41 0 0 1-1-.19 2.29 2.29 0 0 1-1.2-1.26 2.68 2.68 0 0 1 0-1.9 2.25 2.25 0 0 1 .49-.8 2.36 2.36 0 0 1 .76-.51 2.41 2.41 0 0 1 1-.19 2.24 2.24 0 0 1 .9.18 2 2 0 0 1 .71.5 2.42 2.42 0 0 1 .46.76 2.63 2.63 0 0 1 .17.96zm-2.26-1.81a1.63 1.63 0 0 0-1.51 1 2.06 2.06 0 0 0-.17.61h3.26a1.81 1.81 0 0 0-.48-1.13 1.46 1.46 0 0 0-1.14-.49zM126.77 47.57a2.13 2.13 0 0 1 .79.14 1.72 1.72 0 0 1 .62.42 1.93 1.93 0 0 1 .4.66 2.5 2.5 0 0 1 .14.88v2.65H128V49.7a1.52 1.52 0 0 0-.38-1.11 1.35 1.35 0 0 0-1-.39 1.84 1.84 0 0 0-.87.22 2 2 0 0 0-.72.64v3.26h-.68v-4.6h.68v.55a2.27 2.27 0 0 1 .75-.51 2.41 2.41 0 0 1 .99-.19zM132.36 51.81a1.59 1.59 0 0 0 1-.28 1.24 1.24 0 0 0 .5-.76h.71a1.93 1.93 0 0 1-.26.68 2 2 0 0 1-.48.53 2.16 2.16 0 0 1-.64.34 2.44 2.44 0 0 1-.78.12 2.41 2.41 0 0 1-1-.19 2.32 2.32 0 0 1-.76-.52 2.37 2.37 0 0 1-.5-.77 2.61 2.61 0 0 1 0-1.9 2.31 2.31 0 0 1 .5-.77 2.36 2.36 0 0 1 .76-.51 2.41 2.41 0 0 1 1-.19 2.44 2.44 0 0 1 .78.12 2.16 2.16 0 0 1 .64.34 2 2 0 0 1 .48.53 1.94 1.94 0 0 1 .26.68h-.71a1.24 1.24 0 0 0-.5-.76 1.59 1.59 0 0 0-1-.28 1.74 1.74 0 0 0-.71.14 1.59 1.59 0 0 0-.54.38 1.69 1.69 0 0 0-.34.57 2.1 2.1 0 0 0 0 1.4 1.75 1.75 0 0 0 .34.57 1.56 1.56 0 0 0 .54.39 1.74 1.74 0 0 0 .71.14zM140.18 52.57a2.43 2.43 0 0 1-.16.9 1.94 1.94 0 0 1-.44.68 1.91 1.91 0 0 1-.69.43 2.78 2.78 0 0 1-1.74 0 2.35 2.35 0 0 1-.68-.35 1.92 1.92 0 0 1-.48-.54 1.9 1.9 0 0 1-.25-.69h.7a1.32 1.32 0 0 0 .51.78 1.68 1.68 0 0 0 1 .3 1.41 1.41 0 0 0 1.51-1.53v-.89a2.28 2.28 0 0 1-.75.5 2.34 2.34 0 0 1-.9.17 1.94 1.94 0 0 1-1.46-.56 2.1 2.1 0 0 1-.54-1.53v-2.52h.68v2.5a1.52 1.52 0 0 0 .38 1.11 1.41 1.41 0 0 0 1.06.39 1.76 1.76 0 0 0 .83-.22 2 2 0 0 0 .7-.63v-3.15h.68v4.85zM32.54 52.8a2.87 2.87 0 0 0 2.06-.8 3.38 3.38 0 0 0 .86-2.46V43.3h-1.08v6.28c0 1.49-.78 2.25-1.83 2.25a2.41 2.41 0 0 1-2.14-1.34l-.76.66a3.21 3.21 0 0 0 2.89 1.66M51.3 52.67h1.07v-3.29l3.39-6.08h-1.15l-2.77 5.11-2.73-5.11h-1.22l3.41 6.09v3.28zM75.77 43.3h1.06v9.37h-1.06zM47 52.67l-3.92-9.44h-1l-3.92 9.44h1l1-2.48H45l1 2.48h1zm-2.44-3.39h-4l2-4.81zM89.24 52.67V43.3h-1.05v7.79l-6.27-7.79h-1.06v9.37h1.06v-7.72l6.27 7.72h1.05zM97 52.83a5.68 5.68 0 0 0 3.76-1.43v-3.73h-3.44v1h2.43V51a4.41 4.41 0 0 1-2.7.94A3.62 3.62 0 0 1 93.34 48a3.66 3.66 0 0 1 3.56-3.84 4 4 0 0 1 2.85 1.07l.68-.8a4.94 4.94 0 0 0-3.49-1.24 4.7 4.7 0 0 0-4.7 4.81A4.59 4.59 0 0 0 97 52.83M69.83 53.09l-.54-.2a12.9 12.9 0 0 1-4.09-2.66 12.88 12.88 0 0 1-4.09 2.66l-.54.2-2.71-9.79h1.09l2.33 8.37a12.32 12.32 0 0 0 3.19-2.21c-.7-.78-1.87-2.25-1.85-3.47a2.61 2.61 0 0 1 .76-1.82 2.58 2.58 0 0 1 3.65 0 2.61 2.61 0 0 1 .76 1.83c0 1.22-1.15 2.69-1.85 3.47a12.32 12.32 0 0 0 3.19 2.21l2.33-8.37h1.09zm-4.62-8.62A1.56 1.56 0 0 0 63.67 46a5.14 5.14 0 0 0 1.54 2.7 5.14 5.14 0 0 0 1.54-2.7 1.56 1.56 0 0 0-1.54-1.55"></path></svg>